# xmcd
#
# Track frame offsets:
# 215
# 10517
# 25940
# 42305
# 55595
# 67027
# 79250
# 89607
# 102757
# 116697
# 129455
# 141002
# 149572
# 162297
# 172787
# 183640
# 196232
# 208177
# 219132
# 230345
# 242602
# 255132
# 266265
# 278135
# 289537
# 301450
# 313305
#
# Disc length: 4336 seconds
#
# Revision: 0
# Processed by: cddbd v1.4PL0 Copyright (c) Steve Scherf et al.
# Submitted via: Audion 3.0.2 (http://www.panic.com/audion/)
#
DISCID=7910ee1b
DTITLE=The Clyde Otis Music Group - Classics
DYEAR=1900
DGENRE=
TTITLE0=Who's Next in Line
TTITLE1=Topsy Part 1
TTITLE2=Topsy Part 2
TTITLE3=Wishing it was You
TTITLE4=A Mother's Love
TTITLE5=Take a Look
TTITLE6=Silent Lips
TTITLE7=Pop that Thang
TTITLE8=Til I Can't Take it Anymore
TTITLE9=There You Are
TTITLE10=A Lover's Question
TTITLE11=The Wall
TTITLE12=Cry Baby Cry
TTITLE13=Smooth Operator
TTITLE14=A Rocking Good Way to Mess Around
TTITLE15=Baby, You've Got What it Takes
TTITLE16=A Bad Case of the Blues
TTITLE17=A Man only Does (What a Woman Wants)
TTITLE18=I'll Never Kiss You Goodbye
TTITLE19=Ole Smith (Christmas Song)
TTITLE20=Tell Love Hello
TTITLE21=This Bitter Earth
TTITLE22=This I Promise You
TTITLE23=I'm in Heaven Tonight
TTITLE24=You taught Me
TTITLE25=You Don't Know How Happy I Am
TTITLE26=What's a-Matter Baby (Is it Hurtin' You)
EXTD=
EXTT0=
EXTT1=
EXTT2=
EXTT3=
EXTT4=
EXTT5=
EXTT6=
EXTT7=
EXTT8=
EXTT9=
EXTT10=
EXTT11=
EXTT12=
EXTT13=
EXTT14=
EXTT15=
EXTT16=
EXTT17=
EXTT18=
EXTT19=
EXTT20=
EXTT21=
EXTT22=
EXTT23=
EXTT24=
EXTT25=
EXTT26=
PLAYORDER=
